# xmcd
#
# Track frame offsets: 
#        150
#        19846
#        38759
#        54461
#        73594
#        85350
#        93036
#        110743
#        126525
#        139680
#        159449
#        172863
#        191469
#        210609
#        226331
#
# Disc length: 3210 seconds
#
# Revision: 0
# Processed by: cddbd v1.5.2PL0 Copyright (c) Steve Scherf et al.
# Submitted via: ExactAudioCopyFreeDBPlugin 1.0
#
DISCID=c60c880f
DTITLE=群星 - TEST-CD试音极品22CDB
DYEAR=2014
DGENRE=Acid
TTITLE0=竹缕情歌(笛子)
TTITLE1=远飞的大雁(二胡笛子)
TTITLE2=红楼梦(二胡)
TTITLE3=春江花月夜(洞笛)
TTITLE4=兰花草(三弦)
TTITLE5=赛马(二胡)
TTITLE6=采红菱(三弦)
TTITLE7=泉水叮咚响(琵琶)
TTITLE8=边疆的泉水清又纯(古筝)
TTITLE9=嘎达梅林(马头琴)
TTITLE10=洪湖水浪打浪(古筝)
TTITLE11=月亮走我也走(二胡)
TTITLE12=抬花轿(唢呐)
TTITLE13=夫妻双双把家还(葫芦丝)
TTITLE14=一道道水一道道山(古筝)
EXTD=
EXTT0=
EXTT1=
EXTT2=
EXTT3=
EXTT4=
EXTT5=
EXTT6=
EXTT7=
EXTT8=
EXTT9=
EXTT10=
EXTT11=
EXTT12=
EXTT13=
EXTT14=
PLAYORDER=
